<?xml version="1.0" encoding="UTF-8" standalone="no"?>
<!DOCTYPE svg PUBLIC "-//W3C//DTD SVG 1.1//EN"
 "http://www.w3.org/Graphics/SVG/1.1/DTD/svg11.dtd">
<!-- Generated by graphviz version 2.39.20160214.2135 (20160214.2135)
 -->
<!-- Title: g Pages: 1 -->
<svg width="282pt" height="203pt"
 viewBox="0.00 0.00 281.52 203.00" xmlns="http://www.w3.org/2000/svg" xmlns:xlink="http://www.w3.org/1999/xlink">
<g id="graph0" class="graph" transform="scale(1 1) rotate(0) translate(4 199)">
<title>g</title>
<polygon fill="white" stroke="transparent" points="-4,4 -4,-199 277.517,-199 277.517,4 -4,4"/>
<!-- TwitterStreamProvider -->
<g id="node1" class="node">
<title>TwitterStreamProvider</title>
<g id="a_node1"><a xlink:href="https://github.com/apache/incubator-streams/blob/master/streams-contrib/streams-provider-twitter/src/main/java/org/apache/streams/twitter/provider/TwitterStreamProvider.java" xlink:title="TwitterStreamProvider">
<ellipse fill="none" stroke="black" cx="136.758" cy="-177" rx="91.0473" ry="18"/>
<text text-anchor="middle" x="136.758" y="-172.8" font-family="Times,serif" font-size="14.00">TwitterStreamProvider</text>
</a>
</g>
</g>
<!-- RollingFileSink -->
<g id="node2" class="node">
<title>RollingFileSink</title>
<ellipse fill="none" stroke="black" cx="136.758" cy="-91" rx="66.7358" ry="18"/>
<text text-anchor="middle" x="136.758" y="-86.8" font-family="Times,serif" font-size="14.00">RollingFileSink</text>
</g>
<!-- TwitterStreamProvider&#45;&gt;RollingFileSink -->
<g id="edge1" class="edge">
<title>TwitterStreamProvider&#45;&gt;RollingFileSink</title>
<path fill="none" stroke="black" d="M136.758,-158.762C136.758,-147.36 136.758,-132.434 136.758,-119.494"/>
<polygon fill="black" stroke="black" points="140.258,-119.212 136.758,-109.212 133.258,-119.212 140.258,-119.212"/>
<text text-anchor="middle" x="153.872" y="-129.8" font-family="Times,serif" font-size="14.00">String</text>
</g>
<!-- destination -->
<g id="node3" class="node">
<title>destination</title>
<polygon fill="none" stroke="black" points="273.275,-36 0.241273,-36 0.241273,-0 273.275,-0 273.275,-36"/>
<text text-anchor="middle" x="136.758" y="-13.8" font-family="Times,serif" font-size="14.00">hdfs://${host}:${port}/${path}/${writerPath}</text>
</g>
<!-- RollingFileSink&#45;&gt;destination -->
<g id="edge2" class="edge">
<title>RollingFileSink&#45;&gt;destination</title>
<path fill="none" stroke="black" d="M136.758,-72.9551C136.758,-64.8828 136.758,-55.1764 136.758,-46.1817"/>
<polygon fill="black" stroke="black" points="140.258,-46.0903 136.758,-36.0904 133.258,-46.0904 140.258,-46.0903"/>
</g>
</g>
</svg>
