<?xml version="1.0" encoding="UTF-8" standalone="no"?>
<!DOCTYPE svg PUBLIC "-//W3C//DTD SVG 1.1//EN"
 "http://www.w3.org/Graphics/SVG/1.1/DTD/svg11.dtd">
<!-- Generated by graphviz version 2.39.20150411.0445 (20150411.0445)
 -->
<!-- Title: g Pages: 1 -->
<svg width="214pt" height="302pt"
 viewBox="0.00 0.00 214.13 302.00" xmlns="http://www.w3.org/2000/svg" xmlns:xlink="http://www.w3.org/1999/xlink">
<g id="graph0" class="graph" transform="scale(1 1) rotate(0) translate(4 298)">
<title>g</title>
<polygon fill="white" stroke="transparent" points="-4,4 -4,-298 210.134,-298 210.134,4 -4,4"/>
<!-- MongoPersistReader -->
<g id="node1" class="node"><title>MongoPersistReader</title>
<g id="a_node1"><a xlink:href="https://github.com/apache/incubator-streams/blob/master/streams-contrib/streams-persist-mongo/src/main/java/org/apache/streams/mongo/MongoPersistReader.java" xlink:title="MongoPersistReader">
<ellipse fill="none" stroke="black" cx="103.067" cy="-190" rx="84.0668" ry="18"/>
<text text-anchor="middle" x="103.067" y="-185.8" font-family="Times,serif" font-size="14.00">MongoPersistReader</text>
</a>
</g>
</g>
<!-- ElasticsearchPersistWriter -->
<g id="node2" class="node"><title>ElasticsearchPersistWriter</title>
<g id="a_node2"><a xlink:href="https://github.com/apache/incubator-streams/blob/master/streams-contrib/streams-persist-elasticsearch/src/main/java/org/apache/streams/elasticsearch/ElasticsearchPersistWriter.java" xlink:title="ElasticsearchPersistWriter">
<ellipse fill="none" stroke="black" cx="103.067" cy="-104" rx="103.134" ry="18"/>
<text text-anchor="middle" x="103.067" y="-99.8" font-family="Times,serif" font-size="14.00">ElasticsearchPersistWriter</text>
</a>
</g>
</g>
<!-- MongoPersistReader&#45;&gt;ElasticsearchPersistWriter -->
<g id="edge2" class="edge"><title>MongoPersistReader&#45;&gt;ElasticsearchPersistWriter</title>
<path fill="none" stroke="black" d="M103.067,-171.762C103.067,-160.36 103.067,-145.434 103.067,-132.494"/>
<polygon fill="black" stroke="black" points="106.567,-132.212 103.067,-122.212 99.5669,-132.212 106.567,-132.212"/>
<text text-anchor="middle" x="136.888" y="-142.8" font-family="Times,serif" font-size="14.00">ObjectNode</text>
</g>
<!-- destination -->
<g id="node4" class="node"><title>destination</title>
<polygon fill="none" stroke="black" points="165.874,-36 40.2598,-36 40.2598,-0 165.874,-0 165.874,-36"/>
<text text-anchor="middle" x="103.067" y="-13.8" font-family="Times,serif" font-size="14.00">es://{index}/{type}</text>
</g>
<!-- ElasticsearchPersistWriter&#45;&gt;destination -->
<g id="edge3" class="edge"><title>ElasticsearchPersistWriter&#45;&gt;destination</title>
<path fill="none" stroke="black" d="M103.067,-85.7616C103.067,-74.3597 103.067,-59.4342 103.067,-46.494"/>
<polygon fill="black" stroke="black" points="106.567,-46.2121 103.067,-36.2121 99.5669,-46.2121 106.567,-46.2121"/>
<text text-anchor="middle" x="136.888" y="-56.8" font-family="Times,serif" font-size="14.00">ObjectNode</text>
</g>
<!-- source -->
<g id="node3" class="node"><title>source</title>
<polygon fill="none" stroke="black" points="189.595,-294 16.5389,-294 16.5389,-258 189.595,-258 189.595,-294"/>
<text text-anchor="middle" x="103.067" y="-271.8" font-family="Times,serif" font-size="14.00">mongdb://{db}/{collection}</text>
</g>
<!-- source&#45;&gt;MongoPersistReader -->
<g id="edge1" class="edge"><title>source&#45;&gt;MongoPersistReader</title>
<path fill="none" stroke="black" d="M103.067,-257.762C103.067,-246.36 103.067,-231.434 103.067,-218.494"/>
<polygon fill="black" stroke="black" points="106.567,-218.212 103.067,-208.212 99.5669,-218.212 106.567,-218.212"/>
<text text-anchor="middle" x="136.888" y="-228.8" font-family="Times,serif" font-size="14.00">ObjectNode</text>
</g>
</g>
</svg>
