<?xml version="1.0" encoding="UTF-8" standalone="no"?>
<!DOCTYPE svg PUBLIC "-//W3C//DTD SVG 1.1//EN"
 "http://www.w3.org/Graphics/SVG/1.1/DTD/svg11.dtd">
<!-- Generated by graphviz version 2.39.20150411.0445 (20150411.0445)
 -->
<!-- Title: g Pages: 1 -->
<svg width="219pt" height="276pt"
 viewBox="0.00 0.00 218.76 276.00" xmlns="http://www.w3.org/2000/svg" xmlns:xlink="http://www.w3.org/1999/xlink">
<g id="graph0" class="graph" transform="scale(1 1) rotate(0) translate(4 272)">
<title>g</title>
<polygon fill="white" stroke="transparent" points="-4,4 -4,-272 214.763,-272 214.763,4 -4,4"/>
<!-- ElasticsearchPersistReader -->
<g id="node1" class="node"><title>ElasticsearchPersistReader</title>
<g id="a_node1"><a xlink:href="https://github.com/apache/incubator-streams/blob/master/streams-contrib/streams-provider-elasticsearch/src/main/java/org/apache/streams/elasticsearch/ElasticsearchPersistReader.java" xlink:title="ElasticsearchPersistReader">
<ellipse fill="none" stroke="black" cx="105.381" cy="-177" rx="105.263" ry="18"/>
<text text-anchor="middle" x="105.381" y="-172.8" font-family="Times,serif" font-size="14.00">ElasticsearchPersistReader</text>
</a>
</g>
</g>
<!-- WebHdfsPersistWriter -->
<g id="node2" class="node"><title>WebHdfsPersistWriter</title>
<g id="a_node2"><a xlink:href="https://github.com/apache/incubator-streams/blob/master/streams-contrib/streams-persist-elasticsearch/src/main/java/org/apache/streams/elasticsearch/ElasticsearchPersistWriter.java" xlink:title="WebHdfsPersistWriter">
<ellipse fill="none" stroke="black" cx="105.381" cy="-91" rx="89.7062" ry="18"/>
<text text-anchor="middle" x="105.381" y="-86.8" font-family="Times,serif" font-size="14.00">WebHdfsPersistWriter</text>
</a>
</g>
</g>
<!-- ElasticsearchPersistReader&#45;&gt;WebHdfsPersistWriter -->
<g id="edge2" class="edge"><title>ElasticsearchPersistReader&#45;&gt;WebHdfsPersistWriter</title>
<path fill="none" stroke="black" d="M105.381,-158.762C105.381,-147.36 105.381,-132.434 105.381,-119.494"/>
<polygon fill="black" stroke="black" points="108.881,-119.212 105.381,-109.212 101.881,-119.212 108.881,-119.212"/>
<text text-anchor="middle" x="122.495" y="-129.8" font-family="Times,serif" font-size="14.00">String</text>
</g>
<!-- destination -->
<g id="node4" class="node"><title>destination</title>
<polygon fill="none" stroke="black" points="174.136,-36 36.6262,-36 36.6262,-0 174.136,-0 174.136,-36"/>
<text text-anchor="middle" x="105.381" y="-13.8" font-family="Times,serif" font-size="14.00">hdfs://{index}/{type}</text>
</g>
<!-- WebHdfsPersistWriter&#45;&gt;destination -->
<g id="edge3" class="edge"><title>WebHdfsPersistWriter&#45;&gt;destination</title>
<path fill="none" stroke="black" d="M105.381,-72.9551C105.381,-64.8828 105.381,-55.1764 105.381,-46.1817"/>
<polygon fill="black" stroke="black" points="108.881,-46.0903 105.381,-36.0904 101.881,-46.0904 108.881,-46.0903"/>
</g>
<!-- source -->
<g id="node3" class="node"><title>source</title>
<polygon fill="none" stroke="black" points="176.799,-268 33.9637,-268 33.9637,-232 176.799,-232 176.799,-268"/>
<text text-anchor="middle" x="105.381" y="-245.8" font-family="Times,serif" font-size="14.00">es://{indexes}/{types}</text>
</g>
<!-- source&#45;&gt;ElasticsearchPersistReader -->
<g id="edge1" class="edge"><title>source&#45;&gt;ElasticsearchPersistReader</title>
<path fill="none" stroke="black" d="M105.381,-231.955C105.381,-223.883 105.381,-214.176 105.381,-205.182"/>
<polygon fill="black" stroke="black" points="108.881,-205.09 105.381,-195.09 101.881,-205.09 108.881,-205.09"/>
</g>
</g>
</svg>
